# xmcd CD database file
#
# Track frame offsets:
#	182
#	18372
#	35520
#	51592
#	66080
#	84177
#	99242
#	115070
#	131580
#	147192
#	161595
#	176417
#	192607
#	207837
#	223812
#
# Disc length: 3348 seconds
#
# Revision: 2
# Processed by: cddbd v1.5.2PL0 Copyright (c) Steve Scherf et al.
# Submitted via: CDex 1.51
#
DISCID=d40d120f
DTITLE=Nicki - Mein Hitalbum 2
DYEAR=1997
DGENRE=Schlager
TTITLE0=Nicki - Wie a Traum
TTITLE1=Nicki - Du bist in meiner Macht
TTITLE2=Nicki - Tausend Fragen
TTITLE3=Nicki - Immer nur bei dir
TTITLE4=Nicki - Doch die Zeit bleibt stehn
TTITLE5=Nicki - Wenn du bei mir bist
TTITLE6=Nicki - Grenzenlos
TTITLE7=Nicki - Schau mi net so an
TTITLE8=Nicki - Was wärst du ohne mi
TTITLE9=Nicki - Immer mehr
TTITLE10=Nicki - Hey net so schnell
TTITLE11=Nicki - Des geht vorbei
TTITLE12=Nicki - Hals über Kopf
TTITLE13=Nicki - Des was i brauch
TTITLE14=Nicki - Der erste Traum
EXTD=\n\n YEAR: 1997
EXTT0=
EXTT1=
EXTT2=
EXTT3=
EXTT4=
EXTT5=
EXTT6=
EXTT7=
EXTT8=
EXTT9=
EXTT10=
EXTT11=
EXTT12=
EXTT13=
EXTT14=
PLAYORDER=
